<?xml version="1.0" encoding="utf-8"?>
<!-- Generator: Adobe Illustrator 23.0.5, SVG Export Plug-In . SVG Version: 6.00 Build 0)  -->
<svg version="1.1" id="Layer_1" xmlns="http://www.w3.org/2000/svg" xmlns:xlink="http://www.w3.org/1999/xlink" x="0px" y="0px"
	 viewBox="0 0 1920 1080" style="enable-background:new 0 0 1920 1080;" xml:space="preserve">
<style type="text/css">
	.st0{fill:#F2303A;}
</style>
<path id="wave_1_" class="st0" d="M-841.5,513.6h42c42,0,126.9,0,210.7-46.6c84.1-46.6,169.3-139.2,253-185.7
	c84.1-46.6,169.3-46.6,253,0c84.1,46.6,169.3,139.2,253,216.6c84.1,78.2,169.3,138.8,253,170.4c84.1,31.1,169.3,31.1,253,61.7
	c84.1,31.6,169.3,92.4,253,93c84.1-0.6,169.3-61.3,253-123.6c84.1-62.7,169.3-123.1,253-123.6c84.1,0.6,169.3,61.3,253,31.1
	c84.1-30.3,169.3-155.3,253-262.8c84.1-108.5,169.3-201.1,253-216.6c84.1-15,169.3,45.8,253,154.7c84.1,108.9,169.3,262.6,253,247.6
	c84.1-15.5,169.3-201.1,253-170.4c84.1,31.6,169.3,277.9,253,371.3c84.1,92.4,169.3,31.6,253-93c84.1-123.6,169.3-309.4,253-371.3
	c84.1-61.3,169.3-0.6,253-15.5c84.1-15.5,169.3-108.5,253-154.7c84.1-46.6,169.3-46.6,253,0c84.1,46.6,169.3,139.2,253,247.6
	c84.1,107.5,169.3,232.7,253,216.6c84.1-16.1,169.3-169.4,210.3-247.6l42.7-77.2V-43H-841.9v556.6H-841.5z"/>
</svg>
